<svg width="50" height="50" viewBox="0 0 50 50" fill="none" xmlns="http://www.w3.org/2000/svg">
<path d="M48.8343 16C46.484 16 44.4524 16.5643 42.9594 17.6317C42.8144 17.7357 42.6745 17.8447 42.5398 17.9584V2.6C42.5374 1.91105 42.2174 1.2509 41.6495 0.763737C41.0816 0.276577 40.3121 0.00200506 39.5091 0H11.5332C10.7301 0.00200506 9.96059 0.276577 9.39272 0.763737C8.82486 1.2509 8.5048 1.91105 8.50247 2.6V5.26L8.35804 5.1361C7.43986 4.34841 6.19453 3.90589 4.89603 3.90589C3.59752 3.90589 2.3522 4.34841 1.43401 5.1361C0.51583 5.92379 0 6.99213 0 8.1061C0 9.22007 0.51583 10.2884 1.43401 11.0761L6.4783 15.4035C5.66186 15.6078 4.92149 15.9909 4.33006 16.5152C3.73863 17.0394 3.31652 17.6868 3.10528 18.3935C2.89403 19.1002 2.90093 19.8419 3.1253 20.5457C3.34967 21.2494 3.78377 21.8909 4.38488 22.407L7.25428 24.8686C6.34322 24.9637 5.48168 25.2766 4.76799 25.7717C4.05431 26.2667 3.51721 26.9238 3.21802 27.6682C2.91882 28.4125 2.86958 29.214 3.0759 29.9812C3.28223 30.7484 3.73581 31.4504 4.38488 32.007L6.32151 33.6687C5.41046 33.7638 4.54892 34.0767 3.83523 34.5718C3.12154 35.0668 2.58445 35.7239 2.28526 36.4683C1.98606 37.2126 1.93682 38.0141 2.14314 38.7813C2.34947 39.5485 2.80305 40.2505 3.45212 40.8071L8.50247 45.14V47.4C8.50336 48.0893 8.82296 48.7502 9.39113 49.2376C9.95931 49.7251 10.7297 49.9992 11.5332 50H33.9139C34.223 50 34.5195 49.8946 34.7381 49.7071C34.9567 49.5196 35.0795 49.2652 35.0795 49V39.4C35.0819 38.562 35.3104 37.7359 35.7473 36.9864C36.1841 36.2369 36.8173 35.5844 37.5974 35.08L42.0735 32.2C42.2176 32.1063 42.3346 31.9854 42.4154 31.8467C42.4963 31.7079 42.5388 31.5551 42.5398 31.4V23.4C42.5398 19.4173 45.3735 18.3065 47.6687 18.06V49C47.6687 49.2652 47.7915 49.5196 48.0101 49.7071C48.2287 49.8946 48.5252 50 48.8343 50C49.1435 50 49.44 49.8946 49.6586 49.7071C49.8772 49.5196 50 49.2652 50 49V17C50 16.7348 49.8772 16.4804 49.6586 16.2929C49.44 16.1054 49.1435 16 48.8343 16ZM11.5332 2H39.5091C39.6945 2.00016 39.8723 2.06342 40.0034 2.17591C40.1345 2.2884 40.2083 2.44092 40.2084 2.6V5.5956H10.8338V2.6C10.834 2.44092 10.9077 2.2884 11.0388 2.17591C11.17 2.06342 11.3478 2.00016 11.5332 2ZM2.33087 8.106C2.30756 6.1688 5.12974 5.1675 6.70956 6.5501L8.50247 8.0883V14.3118L3.08214 9.6618C2.84322 9.45797 2.65379 9.21552 2.52484 8.94846C2.39588 8.68141 2.32995 8.39506 2.33087 8.106ZM6.03313 17.8816C6.98781 17.0281 8.70529 17.0281 9.65985 17.8816L14.9351 22.4071C17.2516 24.5414 13.7866 27.5064 11.3083 25.5184L6.03313 20.9929C5.55296 20.58 5.2833 20.0205 5.2833 19.4373C5.2833 18.854 5.55296 18.2945 6.03313 17.8816ZM16.5835 20.9929L15.3166 19.9059C15.5577 17.9177 16.5982 16.0636 18.2595 14.662C19.9208 13.2604 22.0992 12.3988 24.4204 12.2252C26.7417 12.0516 29.061 12.5769 30.9799 13.7107C32.8988 14.8445 34.2977 16.5162 34.9362 18.4386C35.5747 20.361 35.4129 22.4142 34.4788 24.2454C33.5446 26.0766 31.8963 27.5716 29.817 28.4737C27.7377 29.3757 25.3572 29.6285 23.0842 29.1886C20.8113 28.7487 18.7879 27.6435 17.3615 26.0629C17.899 25.2619 18.1141 24.3312 17.9735 23.4149C17.8328 22.4985 17.3444 21.6473 16.5835 20.9929ZM6.03313 27.4816C6.98781 26.6281 8.70529 26.6281 9.65985 27.4816L14.9351 32.0071C17.2516 34.1414 13.7866 37.1064 11.3083 35.1184L6.03313 30.5929C5.55296 30.18 5.2833 29.6205 5.2833 29.0373C5.2833 28.454 5.55296 27.8945 6.03313 27.4816ZM5.1006 36.2816C6.05528 35.4281 7.77276 35.4281 8.72732 36.2816L14.0025 40.8071C16.319 42.9414 12.8541 45.9064 10.3758 43.9184L5.1006 39.3929C4.62043 38.98 4.35077 38.4205 4.35077 37.8372C4.35077 37.254 4.62043 36.6945 5.1006 36.2816ZM10.8338 47.4V46.4C11.2745 46.5084 11.7307 46.5634 12.1891 46.5633C12.8672 46.5635 13.538 46.4428 14.1588 46.2087C14.7796 45.9747 15.3369 45.6324 15.7953 45.2038C16.2538 44.7751 16.6032 44.2693 16.8216 43.7185C17.04 43.1678 17.1225 42.5841 17.0639 42.0045H32.7482V48H11.5332C11.3478 47.9998 11.17 47.9366 11.0388 47.8241C10.9077 47.7116 10.834 47.5591 10.8338 47.4ZM36.1986 33.48C35.1296 34.1712 34.2618 35.0654 33.6632 36.0925C33.0646 37.1196 32.7514 38.2517 32.7482 39.4V40.004H16.2391C16.066 39.7848 15.8691 39.5802 15.651 39.3929L13.7141 37.7313C14.6252 37.6362 15.4867 37.3233 16.2004 36.8283C16.9141 36.3332 17.4512 35.6761 17.7504 34.9317C18.0496 34.1874 18.0988 33.3859 17.8925 32.6187C17.6862 31.8515 17.2326 31.1495 16.5835 30.5929L13.7141 28.1313C14.4313 28.0581 15.1203 27.8482 15.7307 27.517C17.4925 29.3595 19.9268 30.6388 22.6405 31.1482C25.3542 31.6576 28.1888 31.3674 30.6866 30.3245C33.1843 29.2816 35.1994 27.5468 36.4063 25.4003C37.6131 23.2539 37.9414 20.8211 37.338 18.4949C36.7346 16.1687 35.2348 14.0848 33.0809 12.58C30.9269 11.0751 28.2445 10.237 25.4669 10.2012C22.6893 10.1653 19.9787 10.9336 17.7729 12.3822C15.567 13.8307 13.9948 15.8748 13.31 18.1844C13.31 18.1844 10.9991 16.22 10.8338 16.11V7.5956H40.2084V30.9L36.1986 33.48Z" fill="#A9A5AF"/>
</svg>
