<svg width="50" height="50" viewBox="0 0 50 50" fill="none" xmlns="http://www.w3.org/2000/svg">
<path d="M38.3119 7.45393C38.3335 7.45553 38.3554 7.45712 38.3775 7.45712C38.415 7.45712 38.4526 7.45393 38.4894 7.44851C39.4739 7.46978 40.2618 8.31309 40.263 9.34709C40.263 9.57275 40.3484 9.78917 40.5003 9.94874C40.6522 10.1083 40.8583 10.1979 41.0731 10.1979C41.288 10.1979 41.494 10.1083 41.6459 9.94874C41.7978 9.78917 41.8832 9.57275 41.8832 9.34709C41.8812 7.6558 40.7602 6.19254 39.1876 5.82858V5.01101C39.1876 4.78535 39.1022 4.56893 38.9503 4.40937C38.7984 4.2498 38.5923 4.16016 38.3775 4.16016C38.1626 4.16016 37.9566 4.2498 37.8047 4.40937C37.6528 4.56893 37.5674 4.78535 37.5674 5.01101V5.86719C35.9045 6.3342 34.8286 8.0239 35.0529 9.81655C35.2772 11.6093 36.732 12.9496 38.4534 12.9496C39.453 12.9496 40.263 13.8008 40.263 14.8508C40.263 15.9002 39.453 16.7514 38.4534 16.7514C37.4539 16.7514 36.6438 15.9002 36.6438 14.8508C36.6438 14.6251 36.5585 14.4087 36.4066 14.2491C36.2546 14.0895 36.0486 13.9999 35.8337 13.9999C35.6189 13.9999 35.4129 14.0895 35.2609 14.2491C35.109 14.4087 35.0237 14.6251 35.0237 14.8508C35.0257 16.481 36.0683 17.9073 37.5674 18.3306V19.2629C37.5674 19.4885 37.6528 19.705 37.8047 19.8645C37.9566 20.0241 38.1626 20.1137 38.3775 20.1137C38.5923 20.1137 38.7984 20.0241 38.9503 19.8645C39.1022 19.705 39.1876 19.4885 39.1876 19.2629V18.3696C40.8983 17.9762 42.0522 16.2919 41.8634 14.4631C41.6751 12.6343 40.2048 11.2482 38.4534 11.2487C37.4815 11.2491 36.683 10.4431 36.6446 9.42314C36.6067 8.40317 37.3427 7.5337 38.3119 7.45436V7.45393Z" fill="#A9A5AF"/>
<path d="M38.4997 0C33.5162 0 29.2633 3.41555 27.67 7.98891H7.56418C7.11884 7.98891 6.75725 8.41062 6.75411 8.87806L6.56273 38.7261H0.831441C0.384077 38.7261 0 39.0665 0 39.5371V43.3248C0.0103285 46.8908 2.68419 49.82 6.07557 49.9813V50H31.0867V49.9751C31.2892 49.983 31.3726 50 31.5008 50H31.5182C35.0283 49.9942 37.871 47.0037 37.871 43.3169V24.1659C38.0736 24.1776 38.2879 24.1838 38.4976 24.1838C44.8393 24.1838 50 18.753 50 12.0915C50.0001 5.4306 44.8418 0.000106359 38.4997 0.000106359V0ZM6.3838 48.2984H6.37874C3.75814 48.2947 1.6321 46.069 1.62025 43.3162V40.428H25.1124V43.3042C25.1131 44.1834 25.2791 45.0539 25.601 45.8655C25.9229 46.6772 26.3943 47.414 26.9881 48.0338C27.0731 48.1231 27.1787 48.192 27.2678 48.2984H6.3838ZM36.251 43.3161C36.2514 46.0639 34.1332 48.2929 31.5175 48.2983H31.5021C28.8757 48.2933 26.7457 46.0631 26.7326 43.3048V39.5372C26.736 39.4296 26.7183 39.3225 26.6806 39.2224C26.6429 39.1223 26.5861 39.0314 26.5136 38.9554C26.4411 38.8793 26.3544 38.8198 26.2591 38.7803C26.1637 38.7409 26.0617 38.7225 25.9593 38.7262H8.18288L8.36879 9.69073H27.2204C27.0768 10.4695 27.0025 11.2606 26.9985 12.0539C26.9969 13.7308 27.33 15.3895 27.9763 16.9229H20.3249C19.8771 16.9229 19.5148 17.304 19.5148 17.7738C19.5148 18.2438 19.8771 18.6246 20.3249 18.6246H28.8552C29.6823 19.9906 30.7638 21.1668 32.0348 22.0826C33.3058 22.9983 34.7399 23.6346 36.251 23.9533V43.3161ZM38.4997 22.4825C33.0428 22.4825 28.6186 17.8361 28.619 12.104C28.619 6.37197 33.0427 1.72543 38.5001 1.72543C43.9569 1.72543 48.3808 6.37239 48.3808 12.104C48.3748 17.8331 43.9547 22.4764 38.4997 22.4825Z" fill="#A9A5AF"/>
<path d="M15.126 22.5839C13.6962 22.5839 12.5332 23.7667 12.5332 25.2208C12.5332 26.6749 13.6961 27.8577 15.126 27.8577C16.5558 27.8577 17.7192 26.6749 17.7192 25.2208C17.7192 23.7667 16.5558 22.5839 15.126 22.5839ZM15.126 26.156C14.5893 26.156 14.1534 25.7364 14.1534 25.2208C14.1534 24.7049 14.5896 24.2856 15.126 24.2856C15.6623 24.2856 16.0991 24.7052 16.0991 25.2208C16.0991 25.7364 15.6623 26.156 15.126 26.156ZM19.5158 25.2171C19.5158 25.687 19.8781 26.0679 20.3258 26.0679H31.1258C31.3406 26.0679 31.5466 25.9783 31.6986 25.8187C31.8505 25.6592 31.9358 25.4427 31.9358 25.2171C31.9358 24.9914 31.8505 24.775 31.6986 24.6154C31.5466 24.4559 31.3406 24.3662 31.1258 24.3662H20.3258C19.8781 24.3662 19.5158 24.7472 19.5158 25.2171ZM15.126 15.1875C13.6962 15.1875 12.5332 16.3707 12.5332 17.8248C12.5332 19.279 13.6961 20.4618 15.126 20.4618C16.5558 20.4618 17.7192 19.279 17.7192 17.8248C17.7192 16.3707 16.5558 15.1875 15.126 15.1875ZM15.126 18.76C14.5893 18.76 14.1534 18.3405 14.1534 17.8248C14.1534 17.3092 14.5896 16.8892 15.126 16.8892C15.6623 16.8892 16.0991 17.3088 16.0991 17.8248C16.0991 18.3405 15.6623 18.7605 15.126 18.7605V18.76ZM15.126 29.9794C13.6962 29.9794 12.5332 31.1622 12.5332 32.6164C12.5332 34.0705 13.6961 35.2533 15.126 35.2533C16.5558 35.2533 17.7192 34.0706 17.7192 32.6164C17.7192 31.1621 16.5558 29.9794 15.126 29.9794ZM15.126 33.5516C14.5893 33.5516 14.1534 33.1324 14.1534 32.6164C14.1534 32.1008 14.5896 31.6812 15.126 31.6812C15.6623 31.6812 16.0991 32.1008 16.0991 32.6164C16.0991 33.132 15.6623 33.5516 15.126 33.5516ZM31.1258 31.8112H20.3258C19.8781 31.8112 19.5158 32.1922 19.5158 32.6621C19.5158 33.132 19.8781 33.5129 20.3258 33.5129H31.1258C31.3406 33.5129 31.5466 33.4233 31.6986 33.2637C31.8505 33.1042 31.9358 32.8878 31.9358 32.6621C31.9358 32.4364 31.8505 32.22 31.6986 32.0604C31.5466 31.9009 31.3406 31.8112 31.1258 31.8112Z" fill="#A9A5AF"/>
</svg>
