<svg width="11" height="10" viewBox="0 0 11 10" fill="none" xmlns="http://www.w3.org/2000/svg">
<g clip-path="url(#clip0_215_455)">
<path fill-rule="evenodd" clip-rule="evenodd" d="M5.01953 9.77692C2.26245 9.77692 0.0195312 7.70933 0.0195312 5.16776C0.0195312 2.62619 2.26245 0.558594 5.01953 0.558594C7.77661 0.558594 10.0195 2.62619 10.0195 5.16776C10.0195 7.70933 7.77661 9.77692 5.01953 9.77692ZM5.01953 1.32679C2.72203 1.32679 0.852865 3.04985 0.852865 5.16776C0.852865 7.28567 2.72203 9.00873 5.01953 9.00873C7.31703 9.00873 9.1862 7.28567 9.1862 5.16776C9.1862 3.04985 7.31703 1.32679 5.01953 1.32679ZM6.6862 7.08824C6.57953 7.08824 6.47286 7.0506 6.39161 6.9757L4.72536 5.4397C4.68661 5.40398 4.6562 5.36173 4.63495 5.31448C4.6137 5.26762 4.60286 5.21769 4.60286 5.16776V2.47908C4.60286 2.26706 4.78911 2.09498 5.01953 2.09498C5.24995 2.09498 5.4362 2.26706 5.4362 2.47908V5.00874L6.98078 6.43259C7.1437 6.58277 7.1437 6.82552 6.98078 6.9757C6.89953 7.0506 6.79286 7.08824 6.6862 7.08824Z" fill="#A9A5AF"/>
</g>
<defs>
<clipPath id="clip0_215_455">
<rect width="10" height="9.21833" fill="white" transform="translate(0.0195312 0.558594)"/>
</clipPath>
</defs>
</svg>
