<svg width="31" height="29" viewBox="0 0 31 29" fill="none" xmlns="http://www.w3.org/2000/svg">
<rect opacity="0.1" x="0.744141" y="0.460938" width="30" height="27.655" rx="13.8275" fill="#17B899"/>
<path d="M17.4046 16.1501L17.4048 16.15L21.872 12.8447L17.3932 9.29398L17.3932 9.29396C17.1991 9.14003 17.1867 8.86797 17.3717 8.70067L17.3722 8.70028L17.3722 8.70028C17.5424 8.54757 17.8171 8.53987 17.9966 8.68277L17.4046 16.1501ZM17.4046 16.1501C17.3092 16.2209 17.25 16.3235 17.2412 16.4357C17.2324 16.5484 17.2754 16.659 17.3613 16.7421M17.4046 16.1501L17.997 8.68302L22.8743 12.5498L22.8744 12.5499C22.9695 12.6253 23.0301 12.7378 23.0275 12.863C23.0248 12.9874 22.9603 13.0978 22.8627 13.17L17.9851 16.7789C17.9851 16.779 17.9851 16.779 17.9851 16.779C17.8983 16.8436 17.7942 16.8722 17.6949 16.8722C17.577 16.8722 17.4532 16.8311 17.3613 16.7421M17.3613 16.7421L17.4654 16.6346L17.3614 16.7422C17.3614 16.7422 17.3613 16.7421 17.3613 16.7421ZM15.5616 13.8867C15.564 13.8868 15.5663 13.8868 15.5687 13.8868C15.5722 13.8869 15.5756 13.8869 15.5793 13.8872M15.5616 13.8867L15.8062 13.9986C15.7989 13.9881 15.7916 13.9776 15.7817 13.9686C15.7711 13.9593 15.7585 13.952 15.7458 13.9447C15.742 13.9425 15.7382 13.9404 15.7345 13.9381M15.5616 13.8867L15.5607 13.8864L15.5616 13.8867ZM15.5793 13.8872C15.5899 13.8877 15.5995 13.8905 15.6092 13.8932C15.6151 13.8949 15.621 13.8966 15.6271 13.8978C15.6326 13.8989 15.6382 13.8998 15.6437 13.9008C15.6589 13.9034 15.6738 13.906 15.6875 13.9115M15.5793 13.8872L15.586 13.7387M15.5793 13.8872L15.5918 13.7398M15.6875 13.9115C15.7003 13.9164 15.711 13.9232 15.7218 13.9302C15.726 13.9329 15.7301 13.9355 15.7345 13.9381M15.6875 13.9115L15.7408 13.7713C15.7413 13.7715 15.7417 13.7716 15.7422 13.7718M15.6875 13.9115L15.7436 13.7724C15.7431 13.7722 15.7427 13.772 15.7422 13.7718M15.7345 13.9381L15.8113 13.8093M15.7345 13.9381L15.8115 13.8094L15.8113 13.8093M15.9329 13.9179C15.9378 13.9237 15.9645 13.9558 15.9797 13.9885L15.9807 13.9906L15.9807 13.9907C15.9908 14.0135 15.9955 14.0344 15.998 14.0471C16.0005 14.0597 16.0007 14.0619 16.0009 14.0632C16.001 14.0641 16.0011 14.0646 16.0017 14.0679L16.0029 14.0715L16.0052 14.0789C16.0087 14.0903 16.0156 14.1143 16.0156 14.1444V15.599L19.738 12.8447L16.0156 9.89365V11.3086C16.0156 11.3174 16.0148 11.3254 16.0138 11.3324C16.0139 11.3393 16.0136 11.3471 16.0125 11.3555L16.0089 11.355C16.0074 11.3601 16.0061 11.3637 16.0058 11.3645L16.0058 11.3647L16.0073 11.3595C16.0077 11.3582 16.0081 11.3567 16.0085 11.355L15.8637 11.336M15.9329 13.9179L16.0118 11.3332C16.0113 11.3414 16.01 11.3483 16.0089 11.3535L15.8637 11.336M15.9329 13.9179L15.9291 13.9125C15.9268 13.9092 15.9233 13.9042 15.9194 13.8989C15.9115 13.8882 15.8994 13.8728 15.8825 13.8575L15.8825 13.8575L15.8812 13.8563C15.8563 13.8343 15.8221 13.8153 15.8133 13.8104C15.8123 13.8099 15.8116 13.8095 15.8113 13.8093M15.9329 13.9179L15.5152 11.7142M15.8637 11.336C15.8628 11.3436 15.8597 11.3502 15.8566 11.3569C15.8545 11.3614 15.8524 11.366 15.8509 11.3709C15.8503 11.3731 15.8496 11.3753 15.849 11.3775C15.8446 11.3925 15.8403 11.407 15.8323 11.4208C15.8244 11.4342 15.8143 11.4453 15.8038 11.4569C15.8025 11.4583 15.8013 11.4597 15.8 11.4611M15.8637 11.336C15.864 11.3335 15.8635 11.3312 15.863 11.3289C15.8625 11.3269 15.8621 11.3249 15.8622 11.3228C15.8623 11.3205 15.8631 11.3183 15.8639 11.3161C15.8647 11.3136 15.8656 11.3112 15.8656 11.3086V9.77474L15.6634 11.5487M15.8 11.4611L15.9114 11.5616C15.9122 11.5607 15.9131 11.5597 15.9142 11.5585C15.9238 11.548 15.9451 11.5249 15.9615 11.497L15.9621 11.496C15.9796 11.4658 15.9892 11.4329 15.9932 11.419L15.9947 11.4157L15.9948 11.4155C15.9985 11.4072 16.009 11.3841 16.0127 11.3539L16.0093 11.3535L15.5375 11.7133C15.5462 11.7137 15.5532 11.7131 15.5572 11.7126L15.5607 11.7122L15.5608 11.7122C15.5608 11.7122 15.5607 11.7122 15.5607 11.7122C15.5591 11.7125 15.5531 11.7135 15.5459 11.7141C15.5433 11.7144 15.5404 11.7146 15.5372 11.7147M15.8 11.4611L15.9127 11.5601C15.9119 11.561 15.9109 11.5621 15.9099 11.5634C15.9005 11.5742 15.8804 11.5974 15.855 11.6171L15.8525 11.6191L15.8525 11.6191C15.8271 11.6379 15.8001 11.6511 15.7855 11.6582C15.7842 11.6589 15.783 11.6595 15.7819 11.66L15.7155 11.5255M15.8 11.4611C15.7988 11.4625 15.7976 11.4639 15.7963 11.4653C15.7861 11.4771 15.7759 11.4887 15.7631 11.4986C15.7493 11.5089 15.734 11.5164 15.7182 11.5242L15.7155 11.5255M15.7155 11.5255L15.7842 11.6588C15.7829 11.6595 15.7815 11.6602 15.7799 11.6611C15.7658 11.6685 15.7387 11.6826 15.7075 11.6921M15.7155 11.5255C15.7139 11.5263 15.7123 11.5271 15.7107 11.528C15.6954 11.5359 15.6805 11.5436 15.6634 11.5487M15.7075 11.6921C15.6779 11.7013 15.6448 11.7051 15.6311 11.7067C15.6298 11.7069 15.6286 11.707 15.6277 11.7071M15.7075 11.6921C15.7079 11.692 15.7083 11.6919 15.7086 11.6918L15.6634 11.5487M15.7075 11.6921C15.7072 11.6922 15.7069 11.6923 15.7066 11.6924L15.6634 11.5487M15.6277 11.7071C15.6272 11.7072 15.6268 11.7072 15.6264 11.7073L15.6067 11.5586L15.6265 11.7073C15.6283 11.707 15.629 11.7068 15.6277 11.7071ZM15.6277 11.7071C15.6276 11.7071 15.6275 11.7072 15.6274 11.7072L15.6236 11.708L15.6168 11.7096C15.6065 11.7119 15.5858 11.7163 15.5607 11.7163C15.5517 11.7163 15.5438 11.7156 15.5372 11.7147M15.5372 11.7147C15.5309 11.715 15.5234 11.7149 15.5152 11.7142M15.5372 11.7147C15.5345 11.7143 15.5321 11.7139 15.5299 11.7135C15.5238 11.7124 15.5185 11.7112 15.5166 11.7107L15.5163 11.7143L15.5161 11.7143L15.5152 11.7142M15.5152 11.7142C15.4854 11.7118 14.8593 11.6637 14.0086 11.7885C13.14 11.9159 12.0485 12.222 11.1174 12.9304L11.1174 12.9304C10.2864 13.5625 9.69637 14.4202 9.35445 15.4994C9.50303 15.3525 9.66903 15.2077 9.85445 15.0678C11.1952 14.0555 13.1219 13.6157 15.5588 13.7364C15.5594 13.7364 15.56 13.7364 15.5607 13.7364C15.5646 13.7364 15.5684 13.7366 15.572 13.7368L15.5721 13.7369C15.5754 13.7369 15.5816 13.737 15.589 13.7375M15.589 13.7375C15.6135 13.739 15.6333 13.7442 15.6436 13.7471L15.6508 13.7491L15.6551 13.7503C15.6558 13.7505 15.6563 13.7506 15.6565 13.7507C15.6566 13.7507 15.6566 13.7507 15.6566 13.7507M15.589 13.7375C15.5881 13.7374 15.5871 13.7374 15.5861 13.7374L15.586 13.7386C15.588 13.7389 15.5899 13.7393 15.5918 13.7397M15.589 13.7375C15.59 13.7376 15.591 13.7376 15.5919 13.7377L15.5918 13.7397M15.6566 13.7507C15.6566 13.7507 15.6566 13.7507 15.6566 13.7507M15.6566 13.7507L15.6566 13.7507M15.6566 13.7507L15.6567 13.7507C15.6599 13.7512 15.7076 13.7582 15.7422 13.7718M15.6566 13.7507C15.6565 13.7507 15.6565 13.7507 15.6565 13.7507C15.6563 13.7507 15.6559 13.7506 15.6554 13.7505L15.6565 13.7507L15.6565 13.7507L15.6566 13.7507ZM15.7422 13.7718C15.7628 13.7798 15.7791 13.7892 15.7902 13.796L15.8041 13.8048L15.8113 13.8093M15.5918 13.7397L15.5918 13.7398M15.5918 13.7397C15.5978 13.7409 15.6027 13.7424 15.6063 13.7435C15.6108 13.7449 15.6143 13.7463 15.6164 13.7471L15.6166 13.7472C15.6147 13.7464 15.6112 13.7451 15.6068 13.7437C15.6031 13.7425 15.598 13.7411 15.5918 13.7398M15.5918 13.7398L15.586 13.7387M15.586 13.7387C15.5806 13.7378 15.5746 13.7371 15.5679 13.7368M15.586 13.7387L15.5679 13.7367H15.5638M15.5679 13.7368L15.5679 13.7368C15.5674 13.7368 15.5675 13.7368 15.5679 13.7368ZM15.5679 13.7368C15.5667 13.7368 15.5655 13.7367 15.5643 13.7367M15.5643 13.7367C15.5641 13.7367 15.564 13.7367 15.5638 13.7367M15.5643 13.7367C15.5654 13.7368 15.5665 13.7368 15.5676 13.7369L15.5616 13.8562L15.5607 13.8745L15.5601 13.8858L15.5601 13.8867M15.5643 13.7367C15.5634 13.7367 15.5625 13.7367 15.5616 13.7367H15.5638M15.5638 13.7367L15.5601 13.8867M15.5601 13.8867V13.8857M15.5601 13.8867V13.8857M15.5601 13.8857V13.7367C15.5218 13.7367 15.4948 13.7513 15.4866 13.756C15.4807 13.7594 15.4759 13.7626 15.4724 13.7651L15.4675 13.7688L15.4655 13.7705L15.4645 13.7713L15.4641 13.7717L15.4639 13.7718L15.4637 13.7719L15.4637 13.772L15.5601 13.8857ZM15.6188 13.7481C15.6183 13.7479 15.6176 13.7476 15.6168 13.7473L15.6188 13.7481L15.6188 13.7481ZM15.6188 13.7481C15.6195 13.7484 15.6198 13.7485 15.6196 13.7484L15.6196 13.7484L15.6194 13.7483L15.6188 13.7481ZM15.8507 16.7793L15.8508 16.7792L20.7288 13.17C20.8263 13.0978 20.8909 12.9874 20.8935 12.863C20.8961 12.7378 20.8355 12.6253 20.7405 12.5499L20.7404 12.5498L15.8627 8.68277L15.8627 8.68275C15.7307 8.57815 15.5458 8.55312 15.3881 8.61085C15.229 8.66907 15.1061 8.8111 15.1061 8.9885V10.8854C14.1947 10.8869 12.1893 11.0479 10.5344 12.3035C8.90731 13.5377 8.09414 15.4687 8.09414 18.0114C8.09414 18.2541 8.31401 18.4133 8.53643 18.4188L8.53643 18.4189H8.54019H8.54021H8.54023H8.54025H8.54026H8.54028H8.5403H8.54032H8.54033H8.54035H8.54037H8.54039H8.54041H8.54042H8.54044H8.54046H8.54048H8.54049H8.54051H8.54053H8.54055H8.54057H8.54058H8.5406H8.54062H8.54064H8.54065H8.54067H8.54069H8.54071H8.54072H8.54074H8.54076H8.54078H8.5408H8.54081H8.54083H8.54085H8.54087H8.54088H8.5409H8.54092H8.54094H8.54095H8.54097H8.54099H8.54101H8.54102H8.54104H8.54106H8.54108H8.54109H8.54111H8.54113H8.54115H8.54116H8.54118H8.5412H8.54122H8.54123H8.54125H8.54127H8.54129H8.5413H8.54132H8.54134H8.54136H8.54137H8.54139H8.54141H8.54143H8.54144H8.54146H8.54148H8.5415H8.54151H8.54153H8.54155H8.54157H8.54158H8.5416H8.54162H8.54164H8.54165H8.54167H8.54169H8.54171H8.54172H8.54174H8.54176H8.54177H8.54179H8.54181H8.54183H8.54184H8.54186H8.54188H8.5419H8.54191H8.54193H8.54195H8.54197H8.54198H8.542H8.54202H8.54203H8.54205H8.54207H8.54209H8.5421H8.54212H8.54214H8.54216H8.54217H8.54219H8.54221H8.54222H8.54224H8.54226H8.54228H8.54229H8.54231H8.54233H8.54234H8.54236H8.54238H8.5424H8.54241H8.54243H8.54245H8.54247H8.54248H8.5425H8.54252H8.54253H8.54255H8.54257H8.54259H8.5426H8.54262H8.54264H8.54265H8.54267H8.54269H8.54271H8.54272H8.54274H8.54276H8.54277H8.54279H8.54281H8.54283H8.54284H8.54286H8.54288H8.54289H8.54291H8.54293H8.54295H8.54296H8.54298H8.543H8.54301H8.54303H8.54305H8.54307H8.54308H8.5431H8.54312H8.54313H8.54315H8.54317H8.54318H8.5432H8.54322H8.54324H8.54325H8.54327H8.54329H8.5433H8.54332H8.54334H8.54336H8.54337H8.54339H8.54341H8.54342H8.54344H8.54346H8.54347H8.54349H8.54351H8.54353H8.54354H8.54356H8.54358H8.54359H8.54361H8.54363H8.54364H8.54366H8.54368H8.5437H8.54371H8.54373H8.54375H8.54376H8.54378H8.5438H8.54381H8.54383H8.54385H8.54387H8.54388H8.5439H8.54392H8.54393H8.54395H8.54397H8.54398H8.544H8.54402H8.54404H8.54405H8.54407H8.54409H8.5441H8.54412H8.54414H8.54415H8.54417H8.54419H8.54421H8.54422H8.54424H8.54426H8.54427H8.54429H8.54431H8.54432H8.54434H8.54436H8.54438H8.54439H8.54441H8.54443H8.54444H8.54446H8.54448H8.54449H8.54451H8.54453H8.54454H8.54456H8.54458H8.5446H8.54461H8.54463H8.54465H8.54466H8.54468H8.5447H8.54471H8.54473H8.54475H8.54477H8.54478H8.5448H8.54482H8.54483H8.54485H8.54487H8.54488H8.5449H8.54492H8.54494H8.54495H8.54497H8.54499H8.545H8.54502H8.54504H8.54505H8.54507H8.54509H8.54511H8.54512H8.54514H8.54516H8.54517H8.54519H8.54521H8.54522H8.54524H8.54526H8.54528H8.54529H8.54531H8.54533H8.54534H8.54536H8.54538H8.54539H8.54541H8.54543H8.54544H8.54546H8.54548H8.5455H8.54551H8.54553H8.54555H8.54556H8.54558H8.5456H8.54562H8.54563H8.54565H8.54567H8.54568H8.5457H8.54572H8.54573H8.54575H8.54577H8.54579H8.5458H8.54582H8.54584H8.54585H8.54587H8.54589H8.5459H8.54592H8.54594H8.54596H8.54597H8.54599H8.54601H8.54602H8.54604H8.54606H8.54608H8.54609H8.54611H8.54613H8.54614H8.54616H8.54618H8.54619H8.54621H8.54623H8.54625H8.54626H8.54628H8.5463H8.54631H8.54633H8.54635H8.54637H8.54638H8.5464H8.54642H8.54643H8.54645H8.54647H8.54649H8.5465H8.54652H8.54654H8.54655H8.54657H8.54659H8.54661H8.54662H8.54664H8.54666H8.54667H8.54669H8.54671H8.54673H8.54674H8.54676H8.54678H8.54679H8.54681H8.54683H8.54685H8.54686H8.54688H8.5469H8.54692H8.54693H8.54695H8.54697H8.54698H8.547H8.54702H8.54704H8.54705H8.54707H8.54709H8.5471H8.54712H8.54714H8.54716H8.54717H8.54719H8.54721H8.54723H8.54724H8.54726H8.54728H8.54729H8.54731H8.54733H8.54735H8.54736H8.54738H8.5474H8.54742H8.54743H8.54745H8.54747H8.54749H8.5475H8.54752H8.54754H8.54756H8.54757H8.54759H8.54761H8.54762H8.54764H8.54766H8.54768H8.54769H8.54771H8.54773H8.54775H8.54776H8.54778H8.5478H8.54782H8.54783H8.54785H8.54787H8.54789H8.5479H8.54792H8.54794H8.54796H8.54797H8.54799H8.54801H8.54803H8.54804H8.54806H8.54808H8.5481H8.54811H8.54813H8.54815H8.54817H8.54818H8.5482H8.54822H8.54824H8.54825H8.54827H8.54829H8.54831H8.54832H8.54834H8.54836H8.54838H8.54839H8.54841H8.54843H8.54845H8.54847H8.54848H8.5485H8.54852H8.54854H8.54855H8.54857H8.54859H8.54861H8.54862H8.54864H8.54866H8.54868H8.5487H8.54871H8.54873H8.54875H8.54877H8.54878H8.5488H8.54882H8.54884H8.54886H8.54887H8.54889H8.54891H8.54893H8.54894H8.54896H8.54898H8.549H8.54902H8.54903C8.76678 18.4189 8.98666 18.2716 9.00296 18.0362L9.00301 18.0355C9.003 18.0356 9.00301 18.0355 9.00303 18.0353C9.00477 18.015 9.11909 16.6851 10.449 15.6861C11.5156 14.885 13.0784 14.4969 15.1061 14.5412V16.4645C15.1061 16.6393 15.2256 16.7798 15.3813 16.8395L15.3819 16.8398C15.4397 16.8617 15.5005 16.8722 15.5607 16.8722C15.6621 16.8722 15.7657 16.842 15.8507 16.7793ZM9.04662 16.0755C9.11335 15.988 9.18563 15.9001 9.2639 15.8123L9.12806 15.7395C9.09854 15.8495 9.07139 15.9614 9.04662 16.0755ZM15.5191 11.7112C15.5182 11.711 15.5173 11.7108 15.5166 11.7106L15.5368 11.7133C15.5289 11.7129 15.5227 11.7119 15.5191 11.7112ZM15.8656 14.1444V15.71L15.8436 14.0516C15.8486 14.0628 15.8506 14.0746 15.8527 14.0865C15.8536 14.0914 15.8544 14.0963 15.8555 14.1012C15.8566 14.1065 15.8582 14.1115 15.8598 14.1166C15.8627 14.1255 15.8656 14.1345 15.8656 14.1444Z" fill="#17B899" stroke="#17B899" stroke-width="0.3" stroke-linecap="round" stroke-linejoin="round"/>
</svg>
