<svg width="31" height="29" viewBox="0 0 31 29" fill="none" xmlns="http://www.w3.org/2000/svg">
<rect opacity="0.1" x="0.744141" y="0.828125" width="30" height="27.655" rx="13.8275" fill="#1E1E1E"/>
<path d="M17.4046 16.5173L17.4048 16.5172L21.872 13.2119L17.3932 9.66117L17.3932 9.66114C17.1991 9.50722 17.1867 9.23516 17.3717 9.06786L17.3722 9.06747L17.3722 9.06747C17.5424 8.91476 17.8171 8.90706 17.9966 9.04995L17.4046 16.5173ZM17.4046 16.5173C17.3092 16.5881 17.25 16.6906 17.2412 16.8029C17.2324 16.9156 17.2754 17.0262 17.3613 17.1093M17.4046 16.5173L17.997 9.05021L22.8743 12.9169L22.8744 12.917C22.9695 12.9925 23.0301 13.105 23.0275 13.2302C23.0248 13.3546 22.9603 13.465 22.8627 13.5371L17.9851 17.1461C17.9851 17.1461 17.9851 17.1462 17.9851 17.1462C17.8983 17.2108 17.7942 17.2394 17.6949 17.2394C17.577 17.2394 17.4532 17.1983 17.3613 17.1093M17.3613 17.1093L17.4654 17.0018L17.3614 17.1094C17.3614 17.1093 17.3613 17.1093 17.3613 17.1093ZM15.5616 14.2539C15.564 14.254 15.5663 14.254 15.5687 14.254C15.5722 14.254 15.5756 14.2541 15.5793 14.2544M15.5616 14.2539L15.8062 14.3657C15.7989 14.3553 15.7916 14.3448 15.7817 14.3358C15.7711 14.3264 15.7585 14.3192 15.7458 14.3119C15.742 14.3097 15.7382 14.3076 15.7345 14.3053M15.5616 14.2539L15.5607 14.2536L15.5616 14.2539ZM15.5793 14.2544C15.5899 14.2549 15.5995 14.2576 15.6092 14.2604C15.6151 14.2621 15.621 14.2638 15.6271 14.265C15.6326 14.2661 15.6382 14.267 15.6437 14.268C15.6589 14.2706 15.6738 14.2732 15.6875 14.2787M15.5793 14.2544L15.586 14.1059M15.5793 14.2544L15.5918 14.1069M15.6875 14.2787C15.7003 14.2835 15.711 14.2904 15.7218 14.2974C15.726 14.3 15.7301 14.3027 15.7345 14.3053M15.6875 14.2787L15.7408 14.1385C15.7413 14.1386 15.7417 14.1388 15.7422 14.139M15.6875 14.2787L15.7436 14.1396C15.7431 14.1394 15.7427 14.1392 15.7422 14.139M15.7345 14.3053L15.8113 14.1765M15.7345 14.3053L15.8115 14.1766L15.8113 14.1765M15.9329 14.2851C15.9378 14.2908 15.9645 14.323 15.9797 14.3557L15.9807 14.3578L15.9807 14.3578C15.9908 14.3807 15.9955 14.4016 15.998 14.4143C16.0005 14.4269 16.0007 14.4291 16.0009 14.4304C16.001 14.4313 16.0011 14.4318 16.0017 14.4351L16.0029 14.4387L16.0052 14.4461C16.0087 14.4575 16.0156 14.4815 16.0156 14.5116V15.9662L19.738 13.2119L16.0156 10.2608V11.6758C16.0156 11.6846 16.0148 11.6926 16.0138 11.6995C16.0139 11.7065 16.0136 11.7143 16.0125 11.7227L16.0089 11.7222C16.0074 11.7273 16.0061 11.7309 16.0058 11.7317L16.0058 11.7318L16.0073 11.7267C16.0077 11.7254 16.0081 11.7239 16.0085 11.7221L15.8637 11.7032M15.9329 14.2851L16.0118 11.7004C16.0113 11.7086 16.01 11.7155 16.0089 11.7207L15.8637 11.7032M15.9329 14.2851L15.9291 14.2797C15.9268 14.2764 15.9233 14.2714 15.9194 14.2661C15.9115 14.2554 15.8994 14.24 15.8825 14.2247L15.8825 14.2247L15.8812 14.2235C15.8563 14.2015 15.8221 14.1825 15.8133 14.1776C15.8123 14.177 15.8116 14.1767 15.8113 14.1765M15.9329 14.2851L15.5152 12.0814M15.8637 11.7032C15.8628 11.7107 15.8597 11.7174 15.8566 11.7241C15.8545 11.7286 15.8524 11.7332 15.8509 11.7381C15.8503 11.7403 15.8496 11.7425 15.849 11.7447C15.8446 11.7597 15.8403 11.7742 15.8323 11.788C15.8244 11.8014 15.8143 11.8125 15.8038 11.8241C15.8025 11.8255 15.8013 11.8269 15.8 11.8283M15.8637 11.7032C15.864 11.7007 15.8635 11.6984 15.863 11.6961C15.8625 11.6941 15.8621 11.6921 15.8622 11.69C15.8623 11.6877 15.8631 11.6854 15.8639 11.6832C15.8647 11.6808 15.8656 11.6784 15.8656 11.6758V10.1419L15.6634 11.9159M15.8 11.8283L15.9114 11.9288C15.9122 11.9279 15.9131 11.9269 15.9142 11.9257C15.9238 11.9152 15.9451 11.8921 15.9615 11.8642L15.9621 11.8632C15.9796 11.833 15.9892 11.8001 15.9932 11.7862L15.9947 11.7829L15.9948 11.7827C15.9985 11.7744 16.009 11.7513 16.0127 11.7211L16.0093 11.7207L15.5375 12.0805C15.5462 12.0809 15.5532 12.0803 15.5572 12.0798L15.5607 12.0794L15.5608 12.0794C15.5608 12.0794 15.5607 12.0794 15.5607 12.0794C15.5591 12.0797 15.5531 12.0807 15.5459 12.0813C15.5433 12.0816 15.5404 12.0818 15.5372 12.0819M15.8 11.8283L15.9127 11.9273C15.9119 11.9282 15.9109 11.9293 15.9099 11.9306C15.9005 11.9414 15.8804 11.9646 15.855 11.9843L15.8525 11.9863L15.8525 11.9863C15.8271 12.0051 15.8001 12.0183 15.7855 12.0254C15.7842 12.0261 15.783 12.0266 15.7819 12.0272L15.7155 11.8927M15.8 11.8283C15.7988 11.8297 15.7976 11.8311 15.7963 11.8325C15.7861 11.8442 15.7759 11.8558 15.7631 11.8658C15.7493 11.8761 15.734 11.8836 15.7182 11.8914L15.7155 11.8927M15.7155 11.8927L15.7842 12.026C15.7829 12.0267 15.7815 12.0274 15.7799 12.0283C15.7658 12.0357 15.7387 12.0498 15.7075 12.0593M15.7155 11.8927C15.7139 11.8935 15.7123 11.8943 15.7107 11.8952C15.6954 11.9031 15.6805 11.9108 15.6634 11.9159M15.7075 12.0593C15.6779 12.0685 15.6448 12.0723 15.6311 12.0739C15.6298 12.074 15.6286 12.0742 15.6277 12.0743M15.7075 12.0593C15.7079 12.0592 15.7083 12.0591 15.7086 12.059L15.6634 11.9159M15.7075 12.0593C15.7072 12.0594 15.7069 12.0595 15.7066 12.0596L15.6634 11.9159M15.6277 12.0743C15.6272 12.0744 15.6268 12.0744 15.6264 12.0745L15.6067 11.9258L15.6265 12.0744C15.6283 12.0742 15.629 12.074 15.6277 12.0743ZM15.6277 12.0743C15.6276 12.0743 15.6275 12.0743 15.6274 12.0744L15.6236 12.0752L15.6168 12.0768C15.6065 12.0791 15.5858 12.0835 15.5607 12.0835C15.5517 12.0835 15.5438 12.0828 15.5372 12.0819M15.5372 12.0819C15.5309 12.0822 15.5234 12.0821 15.5152 12.0814M15.5372 12.0819C15.5345 12.0815 15.5321 12.0811 15.5299 12.0807C15.5238 12.0796 15.5185 12.0783 15.5166 12.0778L15.5163 12.0815L15.5161 12.0815L15.5152 12.0814M15.5152 12.0814C15.4854 12.079 14.8593 12.0309 14.0086 12.1557C13.14 12.2831 12.0485 12.5892 11.1174 13.2976L11.1174 13.2976C10.2864 13.9297 9.69637 14.7874 9.35445 15.8666C9.50303 15.7197 9.66903 15.5749 9.85445 15.435C11.1952 14.4227 13.1219 13.9829 15.5588 14.1036C15.5594 14.1036 15.56 14.1036 15.5607 14.1036C15.5646 14.1036 15.5684 14.1038 15.572 14.104L15.5721 14.104C15.5754 14.1041 15.5816 14.1042 15.589 14.1047M15.589 14.1047C15.6135 14.1061 15.6333 14.1114 15.6436 14.1143L15.6508 14.1163L15.6551 14.1175C15.6558 14.1177 15.6563 14.1178 15.6565 14.1179C15.6566 14.1179 15.6566 14.1179 15.6566 14.1179M15.589 14.1047C15.5881 14.1046 15.5871 14.1046 15.5861 14.1045L15.586 14.1058C15.588 14.1061 15.5899 14.1065 15.5918 14.1069M15.589 14.1047C15.59 14.1048 15.591 14.1048 15.5919 14.1049L15.5918 14.1069M15.6566 14.1179C15.6566 14.1179 15.6566 14.1179 15.6566 14.1179M15.6566 14.1179L15.6566 14.1179M15.6566 14.1179L15.6567 14.1179C15.6599 14.1184 15.7076 14.1254 15.7422 14.139M15.6566 14.1179C15.6565 14.1179 15.6565 14.1179 15.6565 14.1179C15.6563 14.1178 15.6559 14.1178 15.6554 14.1177L15.6565 14.1179L15.6565 14.1179L15.6566 14.1179ZM15.7422 14.139C15.7628 14.147 15.7791 14.1564 15.7902 14.1632L15.8041 14.1719L15.8113 14.1765M15.5918 14.1069L15.5918 14.1069M15.5918 14.1069C15.5978 14.1081 15.6027 14.1096 15.6063 14.1107C15.6108 14.1121 15.6143 14.1135 15.6164 14.1143L15.6166 14.1144C15.6147 14.1136 15.6112 14.1123 15.6068 14.1109C15.6031 14.1097 15.598 14.1082 15.5918 14.1069M15.5918 14.1069L15.586 14.1059M15.586 14.1059C15.5806 14.105 15.5746 14.1043 15.5679 14.104M15.586 14.1059L15.5679 14.1039H15.5638M15.5679 14.104L15.5679 14.104C15.5674 14.104 15.5675 14.104 15.5679 14.104ZM15.5679 14.104C15.5667 14.104 15.5655 14.1039 15.5643 14.1039M15.5643 14.1039C15.5641 14.1039 15.564 14.1039 15.5638 14.1039M15.5643 14.1039C15.5654 14.1039 15.5665 14.104 15.5676 14.1041L15.5616 14.2234L15.5607 14.2417L15.5601 14.2529L15.5601 14.2539M15.5643 14.1039C15.5634 14.1039 15.5625 14.1039 15.5616 14.1039H15.5638M15.5638 14.1039L15.5601 14.2539M15.5601 14.2539V14.2529M15.5601 14.2539V14.2529M15.5601 14.2529V14.1039C15.5218 14.1039 15.4948 14.1185 15.4866 14.1232C15.4807 14.1265 15.4759 14.1298 15.4724 14.1323L15.4675 14.136L15.4655 14.1377L15.4645 14.1385L15.4641 14.1388L15.4639 14.139L15.4637 14.1391L15.4637 14.1392L15.5601 14.2529ZM15.6188 14.1153C15.6183 14.1151 15.6176 14.1148 15.6168 14.1144L15.6188 14.1153L15.6188 14.1153ZM15.6188 14.1153C15.6195 14.1155 15.6198 14.1157 15.6196 14.1156L15.6196 14.1156L15.6194 14.1155L15.6188 14.1153ZM15.8507 17.1465L15.8508 17.1464L20.7288 13.5371C20.8263 13.465 20.8909 13.3546 20.8935 13.2302C20.8961 13.105 20.8355 12.9925 20.7405 12.917L20.7404 12.9169L15.8627 9.04995L15.8627 9.04994C15.7307 8.94534 15.5458 8.92031 15.3881 8.97804C15.229 9.03626 15.1061 9.17829 15.1061 9.35569V11.2526C14.1947 11.2541 12.1893 11.4151 10.5344 12.6707C8.90731 13.9049 8.09414 15.8358 8.09414 18.3786C8.09414 18.6213 8.31401 18.7804 8.53643 18.786L8.53643 18.7861H8.54019H8.54021H8.54023H8.54025H8.54026H8.54028H8.5403H8.54032H8.54033H8.54035H8.54037H8.54039H8.54041H8.54042H8.54044H8.54046H8.54048H8.54049H8.54051H8.54053H8.54055H8.54057H8.54058H8.5406H8.54062H8.54064H8.54065H8.54067H8.54069H8.54071H8.54072H8.54074H8.54076H8.54078H8.5408H8.54081H8.54083H8.54085H8.54087H8.54088H8.5409H8.54092H8.54094H8.54095H8.54097H8.54099H8.54101H8.54102H8.54104H8.54106H8.54108H8.54109H8.54111H8.54113H8.54115H8.54116H8.54118H8.5412H8.54122H8.54123H8.54125H8.54127H8.54129H8.5413H8.54132H8.54134H8.54136H8.54137H8.54139H8.54141H8.54143H8.54144H8.54146H8.54148H8.5415H8.54151H8.54153H8.54155H8.54157H8.54158H8.5416H8.54162H8.54164H8.54165H8.54167H8.54169H8.54171H8.54172H8.54174H8.54176H8.54177H8.54179H8.54181H8.54183H8.54184H8.54186H8.54188H8.5419H8.54191H8.54193H8.54195H8.54197H8.54198H8.542H8.54202H8.54203H8.54205H8.54207H8.54209H8.5421H8.54212H8.54214H8.54216H8.54217H8.54219H8.54221H8.54222H8.54224H8.54226H8.54228H8.54229H8.54231H8.54233H8.54234H8.54236H8.54238H8.5424H8.54241H8.54243H8.54245H8.54247H8.54248H8.5425H8.54252H8.54253H8.54255H8.54257H8.54259H8.5426H8.54262H8.54264H8.54265H8.54267H8.54269H8.54271H8.54272H8.54274H8.54276H8.54277H8.54279H8.54281H8.54283H8.54284H8.54286H8.54288H8.54289H8.54291H8.54293H8.54295H8.54296H8.54298H8.543H8.54301H8.54303H8.54305H8.54307H8.54308H8.5431H8.54312H8.54313H8.54315H8.54317H8.54318H8.5432H8.54322H8.54324H8.54325H8.54327H8.54329H8.5433H8.54332H8.54334H8.54336H8.54337H8.54339H8.54341H8.54342H8.54344H8.54346H8.54347H8.54349H8.54351H8.54353H8.54354H8.54356H8.54358H8.54359H8.54361H8.54363H8.54364H8.54366H8.54368H8.5437H8.54371H8.54373H8.54375H8.54376H8.54378H8.5438H8.54381H8.54383H8.54385H8.54387H8.54388H8.5439H8.54392H8.54393H8.54395H8.54397H8.54398H8.544H8.54402H8.54404H8.54405H8.54407H8.54409H8.5441H8.54412H8.54414H8.54415H8.54417H8.54419H8.54421H8.54422H8.54424H8.54426H8.54427H8.54429H8.54431H8.54432H8.54434H8.54436H8.54438H8.54439H8.54441H8.54443H8.54444H8.54446H8.54448H8.54449H8.54451H8.54453H8.54454H8.54456H8.54458H8.5446H8.54461H8.54463H8.54465H8.54466H8.54468H8.5447H8.54471H8.54473H8.54475H8.54477H8.54478H8.5448H8.54482H8.54483H8.54485H8.54487H8.54488H8.5449H8.54492H8.54494H8.54495H8.54497H8.54499H8.545H8.54502H8.54504H8.54505H8.54507H8.54509H8.54511H8.54512H8.54514H8.54516H8.54517H8.54519H8.54521H8.54522H8.54524H8.54526H8.54528H8.54529H8.54531H8.54533H8.54534H8.54536H8.54538H8.54539H8.54541H8.54543H8.54544H8.54546H8.54548H8.5455H8.54551H8.54553H8.54555H8.54556H8.54558H8.5456H8.54562H8.54563H8.54565H8.54567H8.54568H8.5457H8.54572H8.54573H8.54575H8.54577H8.54579H8.5458H8.54582H8.54584H8.54585H8.54587H8.54589H8.5459H8.54592H8.54594H8.54596H8.54597H8.54599H8.54601H8.54602H8.54604H8.54606H8.54608H8.54609H8.54611H8.54613H8.54614H8.54616H8.54618H8.54619H8.54621H8.54623H8.54625H8.54626H8.54628H8.5463H8.54631H8.54633H8.54635H8.54637H8.54638H8.5464H8.54642H8.54643H8.54645H8.54647H8.54649H8.5465H8.54652H8.54654H8.54655H8.54657H8.54659H8.54661H8.54662H8.54664H8.54666H8.54667H8.54669H8.54671H8.54673H8.54674H8.54676H8.54678H8.54679H8.54681H8.54683H8.54685H8.54686H8.54688H8.5469H8.54692H8.54693H8.54695H8.54697H8.54698H8.547H8.54702H8.54704H8.54705H8.54707H8.54709H8.5471H8.54712H8.54714H8.54716H8.54717H8.54719H8.54721H8.54723H8.54724H8.54726H8.54728H8.54729H8.54731H8.54733H8.54735H8.54736H8.54738H8.5474H8.54742H8.54743H8.54745H8.54747H8.54749H8.5475H8.54752H8.54754H8.54756H8.54757H8.54759H8.54761H8.54762H8.54764H8.54766H8.54768H8.54769H8.54771H8.54773H8.54775H8.54776H8.54778H8.5478H8.54782H8.54783H8.54785H8.54787H8.54789H8.5479H8.54792H8.54794H8.54796H8.54797H8.54799H8.54801H8.54803H8.54804H8.54806H8.54808H8.5481H8.54811H8.54813H8.54815H8.54817H8.54818H8.5482H8.54822H8.54824H8.54825H8.54827H8.54829H8.54831H8.54832H8.54834H8.54836H8.54838H8.54839H8.54841H8.54843H8.54845H8.54847H8.54848H8.5485H8.54852H8.54854H8.54855H8.54857H8.54859H8.54861H8.54862H8.54864H8.54866H8.54868H8.5487H8.54871H8.54873H8.54875H8.54877H8.54878H8.5488H8.54882H8.54884H8.54886H8.54887H8.54889H8.54891H8.54893H8.54894H8.54896H8.54898H8.549H8.54902H8.54903C8.76678 18.7861 8.98666 18.6388 9.00296 18.4034L9.00301 18.4027C9.003 18.4028 9.00301 18.4027 9.00303 18.4025C9.00477 18.3822 9.11909 17.0523 10.449 16.0533C11.5156 15.2522 13.0784 14.8641 15.1061 14.9084V16.8317C15.1061 17.0065 15.2256 17.147 15.3813 17.2067L15.3819 17.2069C15.4397 17.2289 15.5005 17.2394 15.5607 17.2394C15.6621 17.2394 15.7657 17.2092 15.8507 17.1465ZM9.04662 16.4426C9.11335 16.3552 9.18563 16.2673 9.2639 16.1795L9.12806 16.1067C9.09854 16.2166 9.07139 16.3286 9.04662 16.4426ZM15.5191 12.0784C15.5182 12.0782 15.5173 12.078 15.5166 12.0778L15.5368 12.0805C15.5289 12.0801 15.5227 12.0791 15.5191 12.0784ZM15.8656 14.5116V16.0772L15.8436 14.4188C15.8486 14.43 15.8506 14.4418 15.8527 14.4537C15.8536 14.4586 15.8544 14.4635 15.8555 14.4684C15.8566 14.4736 15.8582 14.4787 15.8598 14.4838C15.8627 14.4927 15.8656 14.5017 15.8656 14.5116Z" fill="#1E1E1E" stroke="#FF2A52" stroke-width="0.3" stroke-linecap="round" stroke-linejoin="round"/>
</svg>
