<svg width="50" height="50" viewBox="0 0 50 50" fill="none" xmlns="http://www.w3.org/2000/svg">
<path d="M19.792 28.6458C19.792 30.6667 21.3545 32.2917 23.2712 32.2917H27.1878C28.8545 32.2917 30.2087 30.875 30.2087 29.1042C30.2087 27.2083 29.3753 26.5208 28.1462 26.0833L21.8753 23.8958C20.6462 23.4583 19.8128 22.7917 19.8128 20.875C19.8128 19.125 21.167 17.6875 22.8336 17.6875H26.7503C28.667 17.6875 30.2295 19.3125 30.2295 21.3333" stroke="#A9A5AF" stroke-width="1.5" stroke-linecap="round" stroke-linejoin="round"/>
<path d="M25 15.625V34.375" stroke="#A9A5AF" stroke-width="1.5" stroke-linecap="round" stroke-linejoin="round"/>
<path d="M45.8337 25.0013C45.8337 36.5013 36.5003 45.8346 25.0003 45.8346C13.5003 45.8346 4.16699 36.5013 4.16699 25.0013C4.16699 13.5013 13.5003 4.16797 25.0003 4.16797" stroke="#A9A5AF" stroke-width="1.5" stroke-linecap="round" stroke-linejoin="round"/>
<path d="M45.8333 12.5013V4.16797H37.5" stroke="#A9A5AF" stroke-width="1.5" stroke-linecap="round" stroke-linejoin="round"/>
<path d="M35.417 14.5846L45.8337 4.16797" stroke="#A9A5AF" stroke-width="1.5" stroke-linecap="round" stroke-linejoin="round"/>
</svg>
