<svg width="25" height="23" viewBox="0 0 25 23" fill="none" xmlns="http://www.w3.org/2000/svg">
<path d="M23.4531 9.88525C23.4524 9.88477 23.4518 9.88406 23.4513 9.88352L13.9468 0.613015C13.5417 0.217596 13.003 0 12.4301 0C11.8572 0 11.3186 0.217596 10.9133 0.612971L1.41373 9.87882C1.41054 9.88192 1.40717 9.88521 1.40417 9.88836C0.572202 10.7045 0.573658 12.0287 1.40827 12.8428C1.78953 13.2149 2.29293 13.4303 2.83142 13.453C2.85345 13.4551 2.87552 13.4561 2.89773 13.4561H3.27635V20.2785C3.27635 21.6288 4.40266 22.7272 5.78691 22.7272H9.50537C9.8824 22.7272 10.188 22.429 10.188 22.0614V16.7125C10.188 16.0965 10.7019 15.5953 11.3335 15.5953H13.5267C14.1584 15.5953 14.6721 16.0965 14.6721 16.7125V22.0614C14.6721 22.429 14.9776 22.7273 15.3547 22.7273H19.0731C20.4576 22.7273 21.5837 21.6288 21.5837 20.2786V13.4561H21.935C22.5077 13.4561 23.0464 13.2385 23.4518 12.843C24.2873 12.0277 24.2877 10.7011 23.4531 9.88525ZM22.4864 11.9015C22.4142 11.9724 22.3282 12.0286 22.2336 12.0669C22.1389 12.1051 22.0374 12.1247 21.935 12.1245H20.901C20.524 12.1245 20.2184 12.4225 20.2184 12.7903V20.2786C20.2184 20.8945 19.7047 21.3956 19.0731 21.3956H16.0373V16.7125C16.0373 15.3623 14.9111 14.2637 13.5267 14.2637H11.3335C9.94912 14.2637 8.8228 15.3623 8.8228 16.7125V21.3956H5.787C5.15554 21.3956 4.64162 20.8944 4.64162 20.2786V12.7903C4.64162 12.4225 4.33604 12.1245 3.95901 12.1245H2.94287C2.93222 12.1237 2.92155 12.1233 2.91088 12.123C2.70751 12.1196 2.51678 12.0409 2.37389 11.9013C2.0699 11.6048 2.0699 11.1222 2.37389 10.8256C2.37403 10.8256 2.37403 10.8254 2.37421 10.8252L2.37475 10.8247L11.8789 1.55451C11.9511 1.48362 12.037 1.42742 12.1316 1.38917C12.2262 1.35092 12.3277 1.33138 12.4301 1.33168C12.6383 1.33168 12.834 1.41073 12.9814 1.55451L22.4833 10.8228L22.4878 10.827C22.7902 11.124 22.7896 11.6056 22.4864 11.9015Z" fill="#A9A5AF"/>
</svg>
