<svg width="25" height="23" viewBox="0 0 25 23" fill="none" xmlns="http://www.w3.org/2000/svg">
<path d="M9.04678 0H3.67054C2.18593 0 0.982422 1.17407 0.982422 2.62235V7.86706C0.982422 9.31535 2.18593 10.4894 3.67054 10.4894H9.04678C10.5314 10.4894 11.7349 9.31535 11.7349 7.86706V2.62235C11.7349 1.17407 10.5314 0 9.04678 0Z" fill="#A9A5AF"/>
<path d="M21.5917 0H16.2155C14.7309 0 13.5273 1.17407 13.5273 2.62235V7.86706C13.5273 9.31535 14.7309 10.4894 16.2155 10.4894H21.5917C23.0763 10.4894 24.2798 9.31535 24.2798 7.86706V2.62235C24.2798 1.17407 23.0763 0 21.5917 0Z" fill="#A9A5AF"/>
<path d="M9.04678 12.2383H3.67054C2.18593 12.2383 0.982422 13.4123 0.982422 14.8606V20.1053C0.982422 21.5536 2.18593 22.7277 3.67054 22.7277H9.04678C10.5314 22.7277 11.7349 21.5536 11.7349 20.1053V14.8606C11.7349 13.4123 10.5314 12.2383 9.04678 12.2383Z" fill="#A9A5AF"/>
<path d="M23.3838 16.6089H19.7996V13.1124C19.7996 12.8806 19.7052 12.6582 19.5372 12.4943C19.3691 12.3304 19.1412 12.2383 18.9036 12.2383C18.6659 12.2383 18.438 12.3304 18.27 12.4943C18.1019 12.6582 18.0075 12.8806 18.0075 13.1124V16.6089H14.4234C14.1857 16.6089 13.9578 16.701 13.7898 16.8649C13.6217 17.0288 13.5273 17.2512 13.5273 17.483C13.5273 17.7148 13.6217 17.9372 13.7898 18.1011C13.9578 18.265 14.1857 18.3571 14.4234 18.3571H18.0075V21.8536C18.0075 22.0854 18.1019 22.3077 18.27 22.4717C18.438 22.6356 18.6659 22.7277 18.9036 22.7277C19.1412 22.7277 19.3691 22.6356 19.5372 22.4717C19.7052 22.3077 19.7996 22.0854 19.7996 21.8536V18.3571H23.3838C23.6214 18.3571 23.8493 18.265 24.0174 18.1011C24.1854 17.9372 24.2798 17.7148 24.2798 17.483C24.2798 17.2512 24.1854 17.0288 24.0174 16.8649C23.8493 16.701 23.6214 16.6089 23.3838 16.6089Z" fill="#A9A5AF"/>
</svg>
