<svg width="24" height="23" viewBox="0 0 24 23" fill="none" xmlns="http://www.w3.org/2000/svg">
<path d="M1.834 15.0527C1.95593 15.0527 2.07786 15.0172 2.15915 14.9106L5.24813 11.6773C5.4107 11.5352 5.37006 11.2865 5.20748 11.1799C5.0449 11.0378 4.76039 11.0733 4.63846 11.2154L1.50884 14.4487C1.34627 14.5908 1.38691 14.8395 1.54949 14.9461C1.63078 15.0172 1.75271 15.0527 1.834 15.0527ZM7.32099 12.7432C7.15841 12.6011 6.8739 12.6366 6.75197 12.7788L2.89075 16.8292C2.72817 16.9713 2.76882 17.2201 2.9314 17.3266C3.01269 17.3977 3.09397 17.3977 3.17526 17.3977C3.2972 17.3977 3.41913 17.3622 3.50042 17.2556L7.36163 13.2051C7.48357 13.0985 7.48357 12.8853 7.32099 12.7432ZM13.0925 17.4688L10.0035 20.702C9.84094 20.8442 9.88159 21.0929 10.0442 21.1995C10.1255 21.2705 10.2067 21.2705 10.288 21.2705C10.41 21.2705 10.5319 21.235 10.6132 21.1284L13.7022 17.8951C13.8647 17.753 13.8241 17.5043 13.6615 17.3977C13.4989 17.2911 13.2551 17.3266 13.0925 17.4688ZM11.548 15.8699C11.3854 15.7278 11.1009 15.7633 10.979 15.9054L7.11777 19.9559C6.95519 20.098 6.99583 20.3467 7.15841 20.4533C7.2397 20.5244 7.32099 20.5244 7.40228 20.5244C7.52421 20.5244 7.64614 20.4889 7.72743 20.3823L11.5886 16.3318C11.7512 16.2252 11.7106 15.9765 11.548 15.8699ZM9.4345 14.3066C9.27192 14.1644 8.98741 14.2 8.86548 14.3421L3.663 19.7782C3.50042 19.9204 3.54106 20.1691 3.70364 20.2757C3.78493 20.3467 3.86622 20.3467 3.94751 20.3467C4.06944 20.3467 4.19137 20.3112 4.27266 20.2046L9.47514 14.7685C9.63772 14.6619 9.59708 14.4487 9.4345 14.3066ZM0.248868 15.7988L0.126934 15.941C-0.0356432 16.0831 0.0050011 16.3318 0.167579 16.4384C0.248867 16.5095 0.330156 16.5094 0.411445 16.5094C0.533378 16.5094 0.655311 16.4739 0.7366 16.3673L0.858533 16.2252C1.02111 16.0831 0.980466 15.8344 0.817889 15.7278C0.655311 15.6212 0.411445 15.6212 0.248868 15.7988ZM2.07786 18.2149C1.87464 18.1083 1.63078 18.1083 1.50884 18.2504L1.38691 18.3926C1.22433 18.5347 1.26498 18.7834 1.42755 18.89C1.50884 18.961 1.59013 18.961 1.67142 18.961C1.79335 18.961 1.91529 18.9255 1.99658 18.8189L2.11851 18.6768C2.24044 18.5702 2.24044 18.357 2.07786 18.2149ZM2.28109 21.1995L2.15915 21.3416C1.99658 21.4837 2.03722 21.7324 2.1998 21.839C2.28109 21.9101 2.36238 21.9101 2.44366 21.9101C2.5656 21.9101 2.68753 21.8745 2.76882 21.768L2.89075 21.6258C3.05333 21.4837 3.01269 21.235 2.85011 21.1284C2.68753 21.0573 2.40302 21.0573 2.28109 21.1995ZM5.93908 21.1284L5.81715 21.2705C5.65457 21.4126 5.69522 21.6614 5.85779 21.768C5.93908 21.839 6.02037 21.839 6.10166 21.839C6.22359 21.839 6.34552 21.8035 6.42681 21.6969L6.54875 21.5548C6.71132 21.4126 6.67068 21.1639 6.5081 21.0573C6.34552 20.9863 6.10166 20.9863 5.93908 21.1284ZM8.74354 22.0167L8.62161 22.1588C8.45903 22.3009 8.49968 22.5496 8.66226 22.6562C8.74354 22.7273 8.82483 22.7273 8.90612 22.7273C9.02805 22.7273 9.14999 22.6917 9.23128 22.5851L9.35321 22.443C9.51579 22.3009 9.47514 22.0522 9.31256 21.9456C9.14999 21.839 8.90612 21.839 8.74354 22.0167ZM23.2536 0.16546C23.2129 0.12993 23.2129 0.0943991 23.1723 0.0943991C23.1317 0.0588687 23.091 0.0588687 23.091 0.0588687C22.9284 -0.0121921 22.8065 -0.0121921 22.7252 0.0233383L4.67911 8.58617C4.55717 8.65723 4.47588 8.76382 4.47588 8.90594C4.47588 9.04806 4.55717 9.15465 4.71975 9.22571L11.3854 12.1747L11.3448 14.9106C11.3448 15.0172 11.4261 15.1593 11.548 15.1948C11.5886 15.2659 11.6699 15.2659 11.7512 15.2659C11.7919 15.2659 11.8732 15.2659 11.9138 15.2304L13.5396 14.5908L16.0595 17.5398C16.1408 17.6109 16.2628 17.682 16.3847 17.682H16.466C16.6286 17.6464 16.7505 17.5754 16.7911 17.4332L23.2942 0.449703C23.3349 0.343112 23.3349 0.272051 23.2536 0.16546ZM14.1086 6.77412C14.2712 6.632 14.3525 6.48987 14.4744 6.38328C14.5963 6.27669 14.6776 6.13457 14.8402 5.99245C15.0028 5.85033 15.2466 5.81479 15.4092 5.95692C15.5718 6.09904 15.6124 6.31222 15.4499 6.45434C15.2873 6.59646 15.206 6.73859 15.0841 6.84518C14.9621 6.95177 14.8808 7.09389 14.7183 7.23601C14.637 7.30707 14.515 7.3426 14.3931 7.3426C14.3118 7.3426 14.1899 7.30707 14.1086 7.27154C13.9867 7.12942 13.9867 6.91624 14.1086 6.77412ZM11.6293 10.1495C11.548 10.1495 11.4261 10.114 11.3448 10.0784C11.1822 9.93632 11.1416 9.72314 11.3041 9.58102L12.9706 7.91109C13.1331 7.76897 13.377 7.73344 13.5396 7.87556C13.7022 8.01768 13.7428 8.23086 13.5802 8.37298L11.9138 10.0429C11.8732 10.0784 11.7512 10.1495 11.6293 10.1495ZM16.2628 16.5805L12.3202 11.9616L21.831 2.01304L16.2628 16.5805Z" fill="#A9A5AF"/>
</svg>
